<?xml version="1.0" encoding="UTF-8"?>
<svg version="1.1" xmlns="http://www.w3.org/2000/svg" width="2048" height="2048">
<path d="M0 0 C675.84 0 1351.68 0 2048 0 C2048 675.84 2048 1351.68 2048 2048 C1372.16 2048 696.32 2048 0 2048 C0 1372.16 0 696.32 0 0 Z " fill="#34BDB2" transform="translate(0,0)"/>
<path d="M0 0 C0.75363894 -0.00282738 1.50727787 -0.00565475 2.28375435 -0.00856781 C6.28837548 -0.02350663 10.29296122 -0.03276416 14.29760742 -0.03710938 C17.55065358 -0.04145632 20.80342887 -0.05520691 24.05639648 -0.078125 C42.81418728 -0.20773386 61.05833636 0.19545716 79.66822815 2.85037231 C83.73816443 3.39898538 87.82127108 3.76659381 91.91015625 4.140625 C106.27290747 5.60217695 120.7600197 7.75308776 134.69921875 11.5546875 C137.58839771 12.2791644 140.46653782 12.75083098 143.41015625 13.203125 C148.00439355 13.92284886 152.31961787 14.98032524 156.73828125 16.421875 C158.74511882 17.03746935 160.77955369 17.5631014 162.8203125 18.0546875 C168.45915159 19.44234484 173.95278135 21.28374875 179.47265625 23.078125 C181.59089899 23.76378388 183.7093894 24.44867811 185.828125 25.1328125 C187.4224939 25.64859863 187.4224939 25.64859863 189.04907227 26.17480469 C192.27703493 27.20054431 195.51730503 28.17616383 198.76171875 29.1484375 C205.45507308 31.19858175 211.95685106 33.65094018 218.47265625 36.203125 C220.11911133 36.84121094 220.11911133 36.84121094 221.79882812 37.4921875 C247.02318893 47.28747234 272.2832311 57.50579307 296.09765625 70.41796875 C300.23338448 72.65899139 304.40835384 74.81834805 308.59765625 76.95703125 C323.71644549 84.67966977 338.65058456 92.58575045 353.28515625 101.203125 C354.77198192 102.07317903 356.25895798 102.94297612 357.74609375 103.8125 C361.23838331 105.85826512 364.7236029 107.91575565 368.20703125 109.9765625 C370.35523168 111.24448531 372.50714755 112.50588587 374.66015625 113.765625 C382.62143147 118.42594851 390.53640464 123.14632564 398.37207031 128.01611328 C400.60890863 129.40400352 402.84930693 130.78605727 405.08984375 132.16796875 C416.07274675 138.9465272 427.01054138 145.79239662 437.91162109 152.70166016 C440.3627573 154.25221433 442.81759378 155.79675767 445.2734375 157.33984375 C454.02669291 162.84353133 462.72856767 168.3962585 471.28515625 174.203125 C469.48674055 178.3783942 466.70698497 181.79849331 463.97265625 185.390625 C463.44430176 186.08969971 462.91594727 186.78877441 462.37158203 187.5090332 C460.68029427 189.74361172 458.98358365 191.97396922 457.28515625 194.203125 C456.73263184 194.92886719 456.18010742 195.65460938 455.61083984 196.40234375 C451.84592385 201.3438653 448.06768886 206.27508186 444.28515625 211.203125 C443.43487721 212.31248573 442.58461548 213.42185972 441.734375 214.53125 C432.29819076 226.82454403 422.77678169 239.05194146 413.18774414 251.22631836 C410.19414135 255.03219457 407.23132796 258.86044381 404.28515625 262.703125 C397.69335288 271.2989625 391.01126027 279.82426226 384.22265625 288.265625 C379.9172093 293.6320884 375.73261558 299.08972239 371.54980469 304.55175781 C365.49321942 312.46039541 359.40457562 320.3430416 353.28515625 328.203125 C344.91586164 338.95822147 336.60240708 349.74976194 328.41015625 360.640625 C327.76699463 361.49382324 327.12383301 362.34702148 326.46118164 363.22607422 C323.27197884 367.47638659 320.17241321 371.74166009 317.28515625 376.203125 C313.34221814 375.61654665 310.54770641 374.41561235 307.12890625 372.38671875 C306.12158447 371.79560303 305.1142627 371.2044873 304.07641602 370.59545898 C302.44724243 369.62781616 302.44724243 369.62781616 300.78515625 368.640625 C298.43240207 367.26095892 296.07575903 365.88800674 293.71875 364.515625 C293.10958237 364.16032211 292.50041473 363.80501923 291.87278748 363.43894958 C262.81404921 346.52591072 232.87455609 331.30461097 202.56054688 316.78857422 C199.59686837 315.35400891 196.65513054 313.88394443 193.71875 312.39453125 C190.50210152 310.77647159 187.328834 309.35374793 183.91015625 308.203125 C180.12365722 306.87758629 176.41706527 305.45501613 172.72265625 303.890625 C159.14360187 298.18602226 145.49541044 293.12909788 131.40087891 288.84667969 C128.48281658 287.95907153 125.572347 287.04728464 122.66015625 286.140625 C120.53531057 285.49428411 118.4103006 284.84848319 116.28515625 284.203125 C115.64400879 284.00332031 115.00286133 283.80351563 114.34228516 283.59765625 C105.27913931 280.77411305 96.33219078 278.46708611 86.96875 276.87890625 C83.28515625 276.203125 83.28515625 276.203125 79.4609375 275.21484375 C74.70447025 273.9916206 69.89817254 273.3510525 65.03515625 272.703125 C63.27974156 272.46505833 61.52453381 272.22546102 59.76953125 271.984375 C58.87596924 271.86175293 57.98240723 271.73913086 57.06176758 271.61279297 C54.18620832 271.18852598 51.33062608 270.68763441 48.46875 270.1796875 C-3.12024308 261.49188594 -63.70885104 264.47206228 -107.484375 295.45556641 C-130.3886777 312.04122569 -151.03701862 336.64490481 -156.109375 365.21484375 C-156.56128285 367.44522764 -157.11784769 369.65487279 -157.7265625 371.84765625 C-163.77072411 393.66404961 -161.86849926 415.2071762 -150.86694336 435.07275391 C-147.6531258 440.57425986 -143.92100543 445.43614177 -139.71484375 450.203125 C-138.68423828 451.43095703 -138.68423828 451.43095703 -137.6328125 452.68359375 C-122.97980561 469.71276392 -103.05223958 482.02271718 -82.71484375 491.203125 C-81.8232959 491.60660156 -80.93174805 492.01007813 -80.01318359 492.42578125 C-69.81544312 497.00903539 -59.60866817 501.44179392 -49.02734375 505.06640625 C-45.25243611 506.36180498 -41.51369057 507.73860193 -37.77734375 509.140625 C-37.10574219 509.39231445 -36.43414063 509.64400391 -35.7421875 509.90332031 C-30.60175213 511.84212614 -25.51099563 513.88933431 -20.42114258 515.95727539 C-15.81523901 517.80935619 -11.15913594 519.46529219 -6.46484375 521.078125 C0.64999029 523.53098019 7.56373613 526.35319045 14.48168945 529.31201172 C19.88322038 531.62166234 25.31916324 533.79156002 30.8125 535.875 C43.27584875 540.64163507 55.58816207 545.73109945 67.82543945 551.04882812 C73.90469858 553.66916887 80.02013049 555.93873893 86.28125 558.08984375 C89.99297137 559.4654492 93.43276336 561.19022969 96.9375 563.01953125 C101.96121645 565.5522868 107.2635869 567.44229311 112.5234375 569.421875 C117.89912939 571.45558543 123.13134254 573.50929942 128.2199707 576.18408203 C130.36722534 577.24362108 132.53177355 578.13221728 134.76171875 579.00390625 C140.70358381 581.35647058 146.58900952 583.83406707 152.47265625 586.328125 C153.59671875 586.80386963 154.72078125 587.27961426 155.87890625 587.76977539 C164.45933124 591.40935381 173.01410117 595.10574707 181.54760742 598.85400391 C186.55907351 601.04851607 191.5954757 603.14733465 196.68164062 605.16235352 C207.04689394 609.30592768 217.29757052 613.74045504 227.57421875 618.09765625 C228.65445313 618.55527344 229.7346875 619.01289062 230.84765625 619.484375 C231.92192871 619.9395752 232.99620117 620.39477539 234.10302734 620.86376953 C237.14972033 622.14612013 240.20494275 623.40598278 243.26171875 624.6640625 C249.8051088 627.38743475 256.23647165 630.33490863 262.66015625 633.328125 C263.26465607 633.60969452 263.86915588 633.89126404 264.49197388 634.18136597 C303.42895813 652.33997232 340.53183929 673.48174907 374.28515625 700.203125 C375.15140625 700.87601563 376.01765625 701.54890625 376.91015625 702.2421875 C382.30678955 706.47517175 387.41361289 710.9572826 392.44921875 715.61328125 C394.58226776 717.56123096 396.7373481 719.44957516 398.9296875 721.328125 C403.79429984 725.5717596 408.35117229 730.11865743 412.90356445 734.69116211 C414.34540846 736.13836885 415.79252741 737.58014526 417.24023438 739.02148438 C424.43491497 746.21000428 431.19748386 753.63748912 437.47265625 761.640625 C438.16149902 762.51908081 438.16149902 762.51908081 438.86425781 763.4152832 C462.93272598 794.42595451 486.77124112 832.67175896 493.7890625 871.921875 C494.25964892 874.08583144 494.91982495 875.92110324 495.78515625 877.953125 C497.71540412 882.71569639 498.15858791 887.66484636 498.7578125 892.73828125 C499.20618515 896.21726033 499.20618515 896.21726033 500.27734375 899.54296875 C501.48571623 903.93151531 501.94262916 908.18090945 502.34765625 912.703125 C502.42564453 913.49976563 502.50363281 914.29640625 502.58398438 915.1171875 C502.83943732 917.81105491 503.06661796 920.50600957 503.28515625 923.203125 C503.41543213 924.78504639 503.41543213 924.78504639 503.54833984 926.39892578 C506.35321324 963.88883251 503.82632218 1000.24276775 497.28515625 1037.203125 C497.1484552 1037.98324951 497.01175415 1038.76337402 496.87091064 1039.56713867 C495.50820573 1047.29296668 494.02480346 1054.92773157 491.78515625 1062.453125 C491.34504483 1063.98009197 490.9062415 1065.50743658 490.46875 1067.03515625 C490.26233887 1067.75268066 490.05592773 1068.47020508 489.84326172 1069.20947266 C489.1076371 1071.83725508 488.4736419 1074.48481608 487.84765625 1077.140625 C483.16742946 1096.14914388 476.7984948 1115.57513403 468.28515625 1133.203125 C467.28030742 1135.53437429 466.27993378 1137.86756037 465.28515625 1140.203125 C449.64507136 1176.26309391 428.36399858 1209.7908968 402.28515625 1239.203125 C401.11812541 1240.55697783 399.951401 1241.91109495 398.78515625 1243.265625 C397.62247535 1244.5816571 396.45530625 1245.89372959 395.28515625 1247.203125 C394.45113281 1248.1415625 393.61710937 1249.08 392.7578125 1250.046875 C386.97637355 1256.47422926 380.94562621 1262.57923004 374.66015625 1268.515625 C373.96092041 1269.18021729 373.26168457 1269.84480957 372.54125977 1270.52954102 C371.88697998 1271.13983154 371.2327002 1271.75012207 370.55859375 1272.37890625 C369.68340088 1273.19742065 369.68340088 1273.19742065 368.79052734 1274.0324707 C367.28515625 1275.203125 367.28515625 1275.203125 365.28515625 1275.203125 C365.28515625 1275.863125 365.28515625 1276.523125 365.28515625 1277.203125 C362.40364386 1279.91961686 359.23569782 1282.30195998 356.125 1284.75048828 C354.16899454 1286.29483973 352.22737959 1287.8563287 350.28515625 1289.41796875 C325.53109909 1309.16147108 298.48712552 1324.94816938 270.28515625 1339.203125 C269.20363281 1339.75121826 268.12210938 1340.29931152 267.0078125 1340.86401367 C265.94433594 1341.40002197 264.88085938 1341.93603027 263.78515625 1342.48828125 C262.82609375 1342.97176025 261.86703125 1343.45523926 260.87890625 1343.95336914 C258.08784344 1345.29819694 255.28582889 1346.41304584 252.3671875 1347.44140625 C249.8617733 1348.3580212 247.42585267 1349.40466346 244.97265625 1350.453125 C222.77586413 1359.69491205 199.65055337 1367.04187951 176.21875 1372.44921875 C173.32637612 1373.11924321 173.32637612 1373.11924321 170.8515625 1374.2109375 C167.56867744 1375.48011985 164.23906072 1376.05265488 160.78515625 1376.640625 C155.82432671 1377.50877017 150.94612416 1378.50637079 146.046875 1379.67578125 C139.59956261 1381.18164463 133.1494414 1382.26736566 126.59765625 1383.203125 C124.8664856 1383.45521729 124.8664856 1383.45521729 123.1003418 1383.71240234 C112.78910801 1385.18653569 102.45415884 1386.40494553 92.1015625 1387.546875 C88.68612564 1387.92447753 85.27858344 1388.32422161 81.875 1388.796875 C61.86921964 1391.5647144 41.63059024 1391.37603505 21.47265625 1391.328125 C19.66956497 1391.32530014 19.66956497 1391.32530014 17.83004761 1391.32241821 C-44.32133973 1391.20850948 -44.32133973 1391.20850948 -66.23388672 1386.68286133 C-68.50361067 1386.2439706 -70.68537722 1385.98148208 -72.98828125 1385.80859375 C-85.44274847 1384.79210395 -97.59444526 1382.96847673 -109.87792969 1380.69970703 C-112.92649595 1380.16607676 -115.98110584 1379.70863043 -119.04296875 1379.2578125 C-125.91289132 1378.21697662 -132.67882781 1376.81306718 -139.46484375 1375.328125 C-141.29039795 1374.93222168 -141.29039795 1374.93222168 -143.15283203 1374.52832031 C-168.2819913 1369.05226464 -168.2819913 1369.05226464 -173.53515625 1367.21875 C-176.1757852 1366.37530586 -178.6378669 1365.79914551 -181.3515625 1365.2890625 C-187.19108693 1364.16855529 -192.83341896 1362.52714822 -198.52734375 1360.828125 C-199.51798828 1360.53679687 -200.50863281 1360.24546875 -201.52929688 1359.9453125 C-213.74305933 1356.34047387 -225.88447236 1352.54533035 -237.96484375 1348.515625 C-238.60836792 1348.30102631 -239.25189209 1348.08642761 -239.91491699 1347.86532593 C-266.32921015 1339.04365324 -292.87745973 1329.87082456 -318.0234375 1317.828125 C-321.16270624 1316.38848393 -324.37504539 1315.19356358 -327.609375 1313.984375 C-334.86268317 1311.22061893 -341.8608128 1308.00871417 -348.87304688 1304.69189453 C-350.97384983 1303.69886792 -353.07843052 1302.7142127 -355.18359375 1301.73046875 C-361.5587196 1298.73799767 -367.87900536 1295.70953036 -373.97631836 1292.17358398 C-376.15642509 1290.95663071 -378.43091566 1290.01073243 -380.73828125 1289.0625 C-384.34377115 1287.49489569 -387.8282352 1285.67946883 -391.3359375 1283.90625 C-393.5718963 1282.77922337 -395.81406138 1281.66441858 -398.0625 1280.5625 C-419.20306686 1270.19379009 -439.76787786 1258.77605412 -460.02490234 1246.78613281 C-463.27413447 1244.87398713 -466.5444368 1243.00054207 -469.81738281 1241.12939453 C-481.64489053 1234.35665966 -493.23995122 1227.20943825 -504.81054688 1220.00927734 C-506.61185241 1218.88906397 -508.41490894 1217.77165458 -510.22070312 1216.65869141 C-512.24497027 1215.41104384 -514.26248859 1214.15339386 -516.27734375 1212.890625 C-517.33050781 1212.23449219 -518.38367188 1211.57835937 -519.46875 1210.90234375 C-521.71484375 1209.203125 -521.71484375 1209.203125 -522.71484375 1206.203125 C-521.42814399 1203.8852185 -520.10584875 1201.80269949 -518.58984375 1199.640625 C-518.13899414 1198.98296143 -517.68814453 1198.32529785 -517.22363281 1197.64770508 C-515.73470765 1195.48937008 -514.22743533 1193.34493184 -512.71484375 1191.203125 C-512.21049805 1190.48576172 -511.70615234 1189.76839844 -511.18652344 1189.02929688 C-494.58517058 1165.49932366 -476.44162582 1142.97797398 -457.80053711 1121.03857422 C-454.90205925 1117.62234835 -452.04318156 1114.17794003 -449.21484375 1110.703125 C-443.17362026 1103.28840843 -436.99737964 1095.98608308 -430.734375 1088.7578125 C-425.32614684 1082.50884989 -420.06230791 1076.19116137 -414.99780273 1069.65991211 C-411.35063701 1064.96977244 -407.57740311 1060.39482213 -403.77734375 1055.828125 C-397.14031462 1047.82043446 -390.85195703 1039.59827 -384.71484375 1031.203125 C-384.18503906 1030.4797998 -383.65523437 1029.75647461 -383.109375 1029.01123047 C-378.16727902 1022.25106534 -373.23489144 1015.48811704 -368.5546875 1008.54296875 C-368.05461182 1007.80240234 -367.55453613 1007.06183594 -367.03930664 1006.29882812 C-366.0947471 1004.89240967 -365.15735102 1003.48114533 -364.22827148 1002.06445312 C-361.04297069 997.31250065 -361.04297069 997.31250065 -357.71484375 996.203125 C-355.33203125 997.05859375 -355.33203125 997.05859375 -352.58984375 998.390625 C-351.60757813 998.85855469 -350.6253125 999.32648437 -349.61328125 999.80859375 C-348.65679688 1000.26878906 -347.7003125 1000.72898437 -346.71484375 1001.203125 C-345.21785255 1001.87652071 -343.71807088 1002.54376725 -342.21484375 1003.203125 C-331.89049296 1007.78150815 -321.68755987 1012.5859068 -311.52734375 1017.515625 C-310.14323495 1018.18588434 -308.75912033 1018.85613166 -307.375 1019.52636719 C-299.15177732 1023.51249015 -290.95229852 1027.54093473 -282.80859375 1031.6875 C-279.48951596 1033.31351286 -276.11335423 1034.75155781 -272.71484375 1036.203125 C-270.76880978 1037.144008 -268.83092282 1038.10196323 -266.90234375 1039.078125 C-265.86722656 1039.60019531 -264.83210938 1040.12226562 -263.765625 1040.66015625 C-262.75886719 1041.16933594 -261.75210937 1041.67851563 -260.71484375 1042.203125 C-259.00701524 1043.05830057 -257.29871497 1043.91253496 -255.58984375 1044.765625 C-249.08984375 1048.015625 -242.58984375 1051.265625 -236.08984375 1054.515625 C-235.249375 1054.93457031 -234.40890625 1055.35351562 -233.54296875 1055.78515625 C-231.52843107 1056.7952076 -229.51848346 1057.81443593 -227.51171875 1058.83984375 C-208.02773876 1068.75711196 -188.08796769 1077.77184564 -167.94189453 1086.25268555 C-165.6720016 1087.22140876 -163.41702555 1088.21914197 -161.1640625 1089.2265625 C-134.70623684 1101.02923541 -107.0392963 1110.15799094 -78.71484375 1116.203125 C-77.6690918 1116.43225586 -76.62333984 1116.66138672 -75.54589844 1116.89746094 C-72.37499786 1117.59214927 -69.20202996 1118.27595856 -66.02734375 1118.953125 C-65.09591553 1119.15212402 -64.1644873 1119.35112305 -63.20483398 1119.55615234 C-6.33149823 1131.31330542 67.6437802 1136.39590394 121.28515625 1110.203125 C122.34863281 1109.72101563 123.41210938 1109.23890625 124.5078125 1108.7421875 C132.19241515 1105.15273439 138.71817292 1100.54772149 145.28515625 1095.203125 C146.15140625 1094.50316406 147.01765625 1093.80320312 147.91015625 1093.08203125 C164.42021279 1079.02268622 176.00394177 1058.12288723 181.28515625 1037.203125 C181.4769043 1036.48382812 181.66865234 1035.76453125 181.86621094 1035.0234375 C189.46976896 1005.55189774 187.35593404 973.04492497 172.22119141 946.32470703 C155.21587762 917.55631906 129.02431819 897.0145081 99.83203125 881.5546875 C98.14156058 880.65759724 96.46399369 879.73573373 94.80078125 878.7890625 C87.59972956 874.70846654 80.13457711 871.37830449 72.5546875 868.078125 C69.32251039 866.67057531 66.1450371 865.17874905 62.97265625 863.640625 C56.98123864 860.89302705 50.71890085 858.96542408 44.45996094 856.92944336 C37.88974228 854.779348 31.45909013 852.39069071 25.03833008 849.83300781 C19.37943523 847.59228368 13.66508041 845.55796098 7.91015625 843.578125 C1.61425939 841.40977665 -4.54457178 839.09122054 -10.66015625 836.44921875 C-14.4858136 834.88862451 -18.37167467 833.54801367 -22.27734375 832.203125 C-28.05690542 830.21072057 -33.58228523 827.97713918 -39.109375 825.3515625 C-41.93460481 824.10625881 -44.77487049 823.14421759 -47.71484375 822.203125 C-51.60152837 820.95739275 -55.27142116 819.56425478 -58.96484375 817.828125 C-63.28867929 815.7988213 -67.67235147 814.03972561 -72.15234375 812.390625 C-86.98304469 806.92602137 -101.66414065 800.99635183 -116.1640625 794.70703125 C-122.45987163 791.97771291 -128.75090621 789.41549911 -135.21875 787.125 C-138.26770066 785.99893998 -141.19771676 784.67881162 -144.15234375 783.328125 C-147.38909813 781.90711088 -150.67551762 780.62095298 -153.96484375 779.328125 C-158.87712428 777.3932077 -163.68657776 775.33073611 -168.46484375 773.078125 C-173.2421726 770.83237212 -178.03442344 768.92885128 -183.01171875 767.1796875 C-186.73659416 765.83399552 -190.36768404 764.29414799 -194.015625 762.75390625 C-198.89872206 760.69661743 -203.80898619 758.70534837 -208.71484375 756.703125 C-216.39363032 753.56521172 -224.07184526 750.42751499 -231.71484375 747.203125 C-232.74609375 746.76871094 -233.77734375 746.33429687 -234.83984375 745.88671875 C-277.64313491 727.70522818 -317.47216882 705.87640483 -352.71484375 675.203125 C-353.85373047 674.21505859 -353.85373047 674.21505859 -355.015625 673.20703125 C-356.30986825 672.07865218 -357.60054142 670.94615816 -358.88671875 669.80859375 C-360.15631896 668.69362433 -361.43859289 667.59298764 -362.73046875 666.50390625 C-366.80972517 663.03965223 -370.36382369 659.4329519 -373.81640625 655.34765625 C-375.92576015 652.96486758 -378.17359732 650.7862505 -380.46484375 648.578125 C-385.99077366 643.11080344 -390.66750111 637.14486589 -395.36230469 630.97021484 C-396.6638287 629.26977607 -397.98550398 627.58765817 -399.31640625 625.91015625 C-427.27196783 590.51697506 -446.84261019 547.09741079 -456.71484375 503.203125 C-457.23338565 501.26501048 -457.75415249 499.32748961 -458.27734375 497.390625 C-461.43980951 484.60400668 -462.87200348 471.45747643 -464.33984375 458.390625 C-464.46294922 457.29484131 -464.58605469 456.19905762 -464.71289062 455.07006836 C-466.19635638 441.3838674 -466.87935627 427.8463032 -466.84521484 414.08862305 C-466.8398297 411.50889268 -466.84520789 408.92933467 -466.8515625 406.34960938 C-466.85451902 398.78470372 -466.77126592 391.32848312 -465.95117188 383.80004883 C-465.57538664 379.67068151 -465.55352049 375.53894454 -465.47485352 371.39501953 C-465.14917139 355.65481354 -463.8366785 340.17962914 -458.71484375 325.203125 C-458.38753962 323.5640067 -458.09557249 321.9174239 -457.83984375 320.265625 C-454.74979008 302.71600719 -448.40120547 286.02794502 -442.02734375 269.453125 C-441.7543042 268.73922607 -441.48126465 268.02532715 -441.19995117 267.28979492 C-439.865244 263.8743135 -438.43264229 260.57560085 -436.7578125 257.3125 C-435.2761893 254.42490047 -434.0269056 251.5256609 -432.86328125 248.49609375 C-430.4292506 242.29274548 -427.41395891 236.42248858 -424.33984375 230.515625 C-424.03759888 229.9337442 -423.735354 229.3518634 -423.4239502 228.75234985 C-414.75852558 212.11947641 -405.24327316 195.90760612 -393.97753906 180.88964844 C-392.61405031 179.06849989 -391.26962006 177.23412685 -389.92578125 175.3984375 C-372.59946776 151.85835019 -353.15342997 129.05318732 -330.71484375 110.203125 C-329.78671875 109.39746094 -328.85859375 108.59179688 -327.90234375 107.76171875 C-315.84061945 97.3321526 -303.12245807 87.8360853 -289.71484375 79.203125 C-288.3994709 78.32722628 -287.08438694 77.45089361 -285.76953125 76.57421875 C-276.0999866 70.21310217 -266.10367657 64.59742845 -255.83984375 59.265625 C-254.93155319 58.79030838 -254.93155319 58.79030838 -254.00491333 58.3053894 C-246.69116336 54.49143418 -239.36038599 51.13144623 -231.61132812 48.29882812 C-228.70393701 47.19899912 -225.90451703 45.95795219 -223.08984375 44.640625 C-216.44321699 41.56402047 -209.66498129 38.84139019 -202.52734375 37.140625 C-199.17003976 36.31505845 -196.14904385 35.29217147 -192.96484375 33.984375 C-190.39850852 33.09328638 -187.79282532 32.4789417 -185.15527344 31.83691406 C-181.1759679 30.80347297 -177.25551412 29.5791828 -173.32202148 28.38500977 C-162.58309817 25.12561139 -151.89547427 22.13855348 -140.8984375 19.89453125 C-137.83630081 19.36685401 -137.83630081 19.36685401 -135.71484375 18.203125 C-133.92804002 17.88301358 -132.13511574 17.596709 -130.33984375 17.328125 C-126.16565113 16.65965999 -122.11389843 15.84519892 -118.02734375 14.765625 C-111.8909538 13.17144537 -105.72497795 12.09138624 -99.4765625 11.046875 C-95.54702607 10.37684371 -91.65016179 9.57807499 -87.74609375 8.7734375 C-79.38282798 7.07278949 -70.97493609 5.78041441 -62.52734375 4.578125 C-61.76536682 4.4685144 -61.00338989 4.35890381 -60.21832275 4.24597168 C-49.0865523 2.65634332 -38.08120979 1.55107832 -26.83084106 1.30142212 C-24.86122385 1.20992498 -22.90043896 0.96432258 -20.94555664 0.70703125 C-13.98832783 -0.08410182 -6.99255923 0.01792003 0 0 Z " fill="#FEFEFE" transform="translate(1031.71484375,319.796875)"/>
</svg>
